<?xml version="1.0" encoding="utf-8"?>
<svg xmlns="http://www.w3.org/2000/svg" viewBox="10.5354 -44.5341 251.4668 234.7037" width="251.467px" height="234.704px" xmlns:bx="https://boxy-svg.com" preserveAspectRatio="none"><defs><linearGradient id="gradient-1-0" href="#gradient-1" gradientUnits="userSpaceOnUse" x1="136.269" y1="-9" x2="136.269" y2="154.636" spreadMethod="pad"/><linearGradient id="gradient-1" bx:pinned="true"><stop offset="0.518" style="stop-color: rgb(255, 51, 0);"/><stop offset="0.52" style="stop-color: rgb(191, 250, 12);"/></linearGradient></defs><g id="Layer_1" style="pointer-events: none;"><path d="M 191.539 72.819 L 235.638 -2.143 C 236.629 -3.825 236.438 -5.943 235.165 -7.416 C 233.893 -8.898 231.811 -9.398 230.02 -8.67 L 39.114 68.601 C 37.396 69.301 36.269 70.965 36.269 72.819 C 36.269 74.674 37.396 76.337 39.114 77.037 L 230.02 154.309 C 230.565 154.527 231.147 154.636 231.72 154.636 C 233.011 154.636 234.284 154.09 235.165 153.054 C 236.438 151.581 236.629 149.463 235.638 147.781 L 191.539 72.819 Z M 178.939 91.664 L 182.003 102.082 L 129.449 79.637 L 178.939 91.664 Z M 181.721 68.274 L 116.095 70.546 L 181.721 47.647 L 181.721 68.274 Z" style="transform-box: fill-box; transform-origin: 50% 50%; fill: url(&quot;#gradient-1-0&quot;); pointer-events: none;" transform="matrix(-0.89898, 0.43799, -0.43799, -0.89898, 0.00001, 0.000006)"/></g></svg>