<?xml version="1.0" encoding="utf-8"?>
<svg xmlns="http://www.w3.org/2000/svg" viewBox="0 0 631.652 121.849" xmlns:bx="https://boxy-svg.com" width="631.652px" height="121.849px"><defs><linearGradient id="gradient-1" bx:pinned="true"><stop offset="0.518" style="stop-color: rgb(255, 51, 0);"/><stop offset="0.52" style="stop-color: rgb(191, 250, 12);"/></linearGradient><linearGradient id="gradient-1-0" href="#gradient-1" gradientUnits="userSpaceOnUse" x1="136.269" y1="-9" x2="136.269" y2="154.636" spreadMethod="pad" gradientTransform="matrix(0.6, 0, 0, 0.611111, 1.803079, -1.784802)"/><bx:export><bx:file format="svg" excluded="true"/><bx:file format="svg" path="Untitled 4.svg"/><bx:file format="svg" href="#Layer_1" path="Untitled 2.svg" excluded="true"/><bx:file format="svg" href="#Layer_1" path="Untitled 3.svg"/></bx:export></defs><g id="Layer_1" style="pointer-events: none;" transform="matrix(1, 0, 0, 1, -1.859388, 2.902436)"><path d="M 116.725 42.717 L 143.184 -3.093 C 143.778 -4.12 143.664 -5.415 142.901 -6.315 C 142.137 -7.221 140.888 -7.527 139.814 -7.081 L 25.27 40.14 C 24.239 40.568 23.563 41.585 23.563 42.717 C 23.563 43.852 24.239 44.867 25.27 45.295 L 139.814 92.518 C 140.141 92.65 140.489 92.717 140.834 92.717 C 141.608 92.717 142.371 92.384 142.901 91.751 C 143.664 90.85 143.778 89.557 143.184 88.528 L 116.725 42.717 Z M 109.165 54.235 L 111.004 60.6 L 79.471 46.884 L 109.165 54.235 Z M 110.834 39.941 L 71.459 41.329 L 110.834 27.335 L 110.834 39.941 Z" style="fill: url(&quot;#gradient-1-0&quot;); transform-box: fill-box; transform-origin: 50% 50%; pointer-events: none;" transform="matrix(-0.89898, 0.43799, -0.43799, -0.89898, 0.000003, 0.000005)"/><path d="M 155.21 77.381 L 155.21 11.381 L 177.01 11.381 L 191.91 60.581 L 192.11 60.581 L 206.81 11.381 L 227.51 11.381 L 227.51 77.381 L 214.11 77.381 L 214.11 25.981 L 213.91 25.981 L 197.81 77.381 L 184.71 77.381 L 168.91 25.881 L 168.71 25.881 L 168.71 77.381 Z M 256.71 78.781 Q 249.21 78.781 243.36 75.731 Q 237.51 72.681 234.21 66.531 Q 230.91 60.381 230.91 51.181 Q 230.91 41.681 234.36 35.531 Q 237.81 29.381 243.66 26.431 Q 249.51 23.481 256.81 23.481 Q 264.41 23.481 270.21 26.531 Q 276.01 29.581 279.26 35.731 Q 282.51 41.881 282.51 51.181 Q 282.51 60.681 279.11 66.831 Q 275.71 72.981 269.86 75.881 Q 264.01 78.781 256.71 78.781 Z M 257.01 67.981 Q 260.51 67.981 262.91 66.081 Q 265.31 64.181 266.61 60.581 Q 267.91 56.981 267.91 51.981 Q 267.91 46.481 266.51 42.731 Q 265.11 38.981 262.56 36.931 Q 260.01 34.881 256.41 34.881 Q 253.01 34.881 250.61 36.781 Q 248.21 38.681 246.91 42.331 Q 245.61 45.981 245.61 50.981 Q 245.61 58.981 248.61 63.481 Q 251.61 67.981 257.01 67.981 Z M 295.625 77.381 L 278.925 24.881 L 294.325 24.881 L 304.825 65.281 L 305.225 65.281 L 316.025 24.881 L 330.625 24.881 L 313.925 77.381 Z M 331.62 77.381 L 331.62 24.881 L 346.02 24.881 L 346.02 77.381 Z M 338.72 20.381 Q 334.52 20.381 332.32 18.631 Q 330.12 16.881 330.12 13.506 Q 330.12 10.039 332.345 8.26 Q 334.571 6.481 338.75 6.481 Q 343.02 6.481 345.22 8.281 Q 347.42 10.081 347.42 13.481 Q 347.42 16.749 345.199 18.565 Q 342.979 20.381 338.72 20.381 Z M 375.116 78.781 Q 367.916 78.781 363.016 76.681 Q 358.116 74.581 355.016 70.881 Q 351.916 67.181 350.466 62.381 Q 349.016 57.581 349.016 52.081 Q 349.016 46.381 350.516 41.231 Q 352.016 36.081 355.016 32.081 Q 358.016 28.081 362.766 25.781 Q 367.516 23.481 374.216 23.481 Q 380.616 23.481 385.316 25.731 Q 390.016 27.981 392.916 31.981 Q 395.816 35.981 396.766 41.381 Q 397.716 46.781 396.716 53.081 L 358.016 53.681 L 358.016 45.481 L 385.716 44.981 L 383.716 49.781 Q 384.216 45.081 383.316 41.781 Q 382.416 38.481 380.166 36.731 Q 377.916 34.981 374.216 34.981 Q 370.216 34.981 367.716 37.031 Q 365.216 39.081 364.116 42.781 Q 363.016 46.481 363.016 51.381 Q 363.016 59.781 366.066 63.831 Q 369.116 67.881 375.316 67.881 Q 378.016 67.881 379.866 67.131 Q 381.716 66.381 382.866 65.031 Q 384.016 63.681 384.466 61.881 Q 384.916 60.081 384.716 57.981 L 398.016 58.781 Q 398.216 62.281 397.166 65.781 Q 396.116 69.281 393.466 72.231 Q 390.816 75.181 386.316 76.981 Q 381.816 78.781 375.116 78.781 Z" style="fill: rgb(255, 51, 0); text-wrap-mode: nowrap; pointer-events: none;"/><path d="M 401.71 77.381 L 401.71 22.791 L 411.915 22.791 L 411.915 31.531 L 412.501 31.531 Q 414.015 27.137 417.799 24.573 Q 421.583 22.01 426.368 22.01 Q 427.345 22.01 428.687 22.083 Q 430.03 22.156 430.86 22.254 L 430.86 32.41 Q 430.225 32.215 428.59 32.02 Q 426.954 31.824 425.294 31.824 Q 421.534 31.824 418.58 33.411 Q 415.626 34.998 413.941 37.757 Q 412.257 40.516 412.257 44.129 L 412.257 77.381 Z M 447.949 78.553 Q 442.773 78.553 438.574 76.624 Q 434.374 74.695 431.933 70.985 Q 429.492 67.274 429.492 61.951 Q 429.492 57.313 431.274 54.359 Q 433.056 51.404 436.083 49.647 Q 439.111 47.889 442.822 47.01 Q 446.533 46.131 450.439 45.643 Q 455.37 45.106 458.398 44.715 Q 461.425 44.324 462.817 43.47 Q 464.208 42.615 464.208 40.711 L 464.208 40.467 Q 464.208 35.828 461.596 33.289 Q 458.984 30.75 453.857 30.75 Q 448.535 30.75 445.434 33.069 Q 442.333 35.389 441.161 38.318 L 431.152 36.024 Q 432.958 31.043 436.401 27.991 Q 439.843 24.94 444.311 23.524 Q 448.779 22.108 453.661 22.108 Q 456.933 22.108 460.595 22.864 Q 464.257 23.621 467.504 25.648 Q 470.751 27.674 472.802 31.434 Q 474.853 35.193 474.853 41.151 L 474.853 77.381 L 464.453 77.381 L 464.453 69.91 L 464.062 69.91 Q 463.085 71.912 461.01 73.914 Q 458.935 75.916 455.712 77.235 Q 452.49 78.553 447.949 78.553 Z M 450.244 70.057 Q 454.687 70.057 457.812 68.323 Q 460.937 66.59 462.597 63.758 Q 464.257 60.926 464.257 57.752 L 464.257 50.672 Q 463.671 51.209 462.06 51.697 Q 460.449 52.186 458.398 52.527 Q 456.347 52.869 454.394 53.138 Q 452.441 53.406 451.122 53.553 Q 448.046 53.992 445.507 54.896 Q 442.968 55.799 441.43 57.532 Q 439.892 59.266 439.892 62.098 Q 439.892 66.053 442.822 68.055 Q 445.751 70.057 450.244 70.057 Z M 526.34 22.791 L 506.614 77.381 L 495.188 77.381 L 475.413 22.791 L 486.79 22.791 L 500.657 64.881 L 501.243 64.881 L 515.012 22.791 Z M 550.481 78.504 Q 542.473 78.504 536.614 75.037 Q 530.754 71.57 527.605 65.247 Q 524.455 58.924 524.455 50.477 Q 524.455 42.078 527.556 35.682 Q 530.656 29.285 536.296 25.696 Q 541.936 22.108 549.553 22.108 Q 554.192 22.108 558.537 23.621 Q 562.883 25.135 566.35 28.406 Q 569.817 31.678 571.843 36.902 Q 573.869 42.127 573.869 49.5 L 573.869 53.309 L 530.461 53.309 L 530.461 45.35 L 568.401 45.35 L 563.469 47.986 Q 563.469 42.957 561.906 39.1 Q 560.344 35.242 557.243 33.069 Q 554.143 30.897 549.553 30.897 Q 544.963 30.897 541.716 33.094 Q 538.469 35.291 536.76 38.904 Q 535.051 42.518 535.051 46.815 L 535.051 52.235 Q 535.051 57.85 537.004 61.756 Q 538.957 65.662 542.448 67.713 Q 545.94 69.764 550.578 69.764 Q 553.606 69.764 556.072 68.885 Q 558.537 68.006 560.344 66.248 Q 562.151 64.49 563.078 61.902 L 573.137 63.807 Q 571.916 68.201 568.84 71.522 Q 565.764 74.842 561.101 76.673 Q 556.438 78.504 550.481 78.504 Z M 618.815 36.17 L 609.196 37.83 Q 608.268 35.096 605.753 32.801 Q 603.239 30.506 598.258 30.506 Q 593.766 30.506 590.763 32.532 Q 587.76 34.559 587.76 37.684 Q 587.76 40.418 589.786 42.127 Q 591.813 43.836 596.256 44.861 L 604.996 46.815 Q 612.467 48.524 616.178 52.186 Q 619.889 55.848 619.889 61.561 Q 619.889 66.492 617.057 70.325 Q 614.225 74.158 609.196 76.331 Q 604.166 78.504 597.575 78.504 Q 588.395 78.504 582.633 74.549 Q 576.871 70.594 575.553 63.416 L 585.758 61.854 Q 586.735 65.858 589.738 67.908 Q 592.741 69.959 597.526 69.959 Q 602.701 69.959 605.851 67.762 Q 609 65.565 609 62.44 Q 609 57.264 601.285 55.457 L 592.057 53.406 Q 584.391 51.649 580.753 47.864 Q 577.116 44.08 577.116 38.318 Q 577.116 33.485 579.826 29.822 Q 582.535 26.16 587.296 24.134 Q 592.057 22.108 598.16 22.108 Q 607.047 22.108 612.101 25.965 Q 617.155 29.822 618.815 36.17 Z" style="fill: rgb(191, 250, 12); text-wrap-mode: nowrap; pointer-events: none;"/></g></svg>