<?xml version="1.0" encoding="utf-8"?>
<svg xmlns="http://www.w3.org/2000/svg" viewBox="4.031 4.482 20 20" width="20px" height="20px"><g style="pointer-events: none;" id="object-0"><path fill-rule="evenodd" clip-rule="evenodd" d="M 5.959 12.837 C 5.959 9.287 8.836 6.41 12.385 6.41 C 15.935 6.41 18.812 9.287 18.812 12.837 C 18.812 16.385 15.935 19.263 12.385 19.263 C 8.836 19.263 5.959 16.385 5.959 12.837 Z M 12.385 4.482 C 7.772 4.482 4.031 8.222 4.031 12.837 C 4.031 17.451 7.772 21.192 12.385 21.192 C 14.345 21.192 16.147 20.516 17.572 19.387 L 21.986 23.8 L 22.668 24.482 L 24.031 23.12 L 23.349 22.438 L 18.935 18.023 C 20.065 16.598 20.74 14.796 20.74 12.837 C 20.74 8.222 16.999 4.482 12.385 4.482 Z" style="fill: rgb(191, 250, 12); pointer-events: none;"/></g></svg>