<?xml version="1.0" encoding="utf-8"?>
<svg xmlns="http://www.w3.org/2000/svg" viewBox="2.7535 2.465 15.0019 15.0002" width="15.0019px" height="15.0002px"><path d="M 11.55 3.548 L 12.87 6.209 C 13.05 6.58 13.53 6.935 13.935 7.004 L 16.328 7.404 C 17.858 7.661 18.218 8.78 17.115 9.884 L 15.255 11.759 C 14.94 12.077 14.768 12.69 14.865 13.128 L 15.398 15.449 C 15.818 17.287 14.85 17.998 13.238 17.037 L 10.995 15.699 C 10.59 15.457 9.923 15.457 9.51 15.699 L 7.268 17.037 C 5.663 17.998 4.688 17.279 5.108 15.449 L 5.64 13.128 C 5.738 12.69 5.565 12.077 5.25 11.759 L 3.39 9.884 C 2.295 8.78 2.648 7.661 4.178 7.404 L 6.57 7.004 C 6.968 6.935 7.448 6.58 7.628 6.209 L 8.948 3.548 C 9.668 2.104 10.838 2.104 11.55 3.548 Z" style="fill: rgb(255, 51, 0);" id="object-0"/></svg>